<svg xmlns="http://www.w3.org/2000/svg" version="1.1" xmlns:xlink="http://www.w3.org/1999/xlink" xmlns:svgjs="http://svgjs.dev/svgjs" width="1500" height="1500" viewBox="0 0 1500 1500"><rect width="1500" height="1500" fill="#ffffff"></rect><g transform="matrix(0.6666666666666666,0,0,0.6666666666666666,249.39393939393938,493.8410924995949)"><svg viewBox="0 0 396 202" data-background-color="#ffffff" preserveAspectRatio="xMidYMid meet" height="765" width="1500" xmlns="http://www.w3.org/2000/svg" xmlns:xlink="http://www.w3.org/1999/xlink"><g id="tight-bounds" transform="matrix(1,0,0,1,0.2400000000000091,0.45901826486634434)"><svg viewBox="0 0 395.52 201.0819634702673" height="201.0819634702673" width="395.52"><g><svg viewBox="0 0 397.4975999999999 202.08737328761862" height="201.0819634702673" width="395.52"><g><rect width="397.4975999999999" height="6.189669333997635" x="0" y="111.05833649450317" fill="#0c0a0f" opacity="1" stroke-width="0" stroke="transparent" fill-opacity="1" class="rect-yte-0" data-fill-palette-color="secondary" rx="1%" id="yte-0" data-palette-color="#0c0a0f"></rect></g><g transform="matrix(1,0,0,1,0.9887999999999693,133.45132869236895)"><svg viewBox="0 0 395.52 68.63604459524964" height="68.63604459524964" width="395.52"><g id="textblocktransform"><svg viewBox="0 0 395.52 68.63604459524964" height="68.63604459524964" width="395.52" id="textblock"><g><svg viewBox="0 0 395.52 68.63604459524964" height="68.63604459524964" width="395.52"><g transform="matrix(1,0,0,1,0,0)"><svg width="395.52" viewBox="3.7 -35.8 206.28 35.8" height="68.63604459524964" data-palette-color="#0c0a0f"><path d="M33.05-30L23 0 18.2 0 8-30 8 0 3.7 0 3.7-35.8 10-35.8 20.65-4.65 31.05-35.8 37.4-35.8 37.4 0 33.05 0 33.05-30ZM77.5-35.8L81.8-35.8 81.8 0 76.7 0 58.15-29.05 58.15 0 53.85 0 53.85-35.8 58.8-35.8 77.5-6.55 77.5-35.8ZM90.44-35.8L95.09-35.8 95.09 0 90.44 0 90.44-35.8ZM128.29-31.75L116.59-31.75 116.59 0 112.04 0 112.04-31.75 100.24-31.75 100.24-35.8 128.29-35.8 128.29-31.75ZM156.24 0L156.24-16.3 137.79-16.3 137.79 0 133.24 0 133.24-35.8 137.79-35.8 137.79-20.35 156.24-20.35 156.24-35.8 160.79-35.8 160.79 0 156.24 0ZM169.54-35.8L174.19-35.8 174.19 0 169.54 0 169.54-35.8ZM205.68-35.8L209.98-35.8 209.98 0 204.88 0 186.33-29.05 186.33 0 182.03 0 182.03-35.8 186.98-35.8 205.68-6.55 205.68-35.8Z" opacity="1" transform="matrix(1,0,0,1,0,0)" fill="#0c0a0f" class="wordmark-text-0" data-fill-palette-color="primary" id="text-0"></path></svg></g></svg></g></svg></g></svg></g><g transform="matrix(1,0,0,1,145.63034299894628,0)"><svg viewBox="0 0 106.23691400210738 94.85501363063501" height="94.85501363063501" width="106.23691400210738"><g><svg xmlns="http://www.w3.org/2000/svg" xmlns:xlink="http://www.w3.org/1999/xlink" version="1.1" x="8" y="0" viewBox="8.582499743677396 6.464249935897439 82.8342502563226 87.07350006410255" enable-background="new 0 0 100 100" xml:space="preserve" height="94.85501363063501" width="90.23691400210738" class="icon-icon-0" data-fill-palette-color="accent" id="icon-0"><g fill="#f98d67" data-fill-palette-color="accent"><path d="M42.591 8.658C39.668 5.734 34.909 5.732 31.985 8.658 29.062 11.58 29.061 16.342 31.985 19.263L44.716 31.992A7.47 7.47 0 0 0 40.471 34.11C37.547 37.033 37.546 41.793 40.471 44.716L40.475 44.72A7.474 7.474 0 0 0 34.11 51.077L21.384 38.354C18.458 35.429 13.7 35.427 10.776 38.352 7.85 41.278 7.852 46.036 10.778 48.961L47.899 86.082C57.84 96.023 74.02 96.023 83.961 86.082 93.902 76.139 93.902 59.961 83.961 50.02zM34.106 10.779A4.5 4.5 0 0 1 40.47 10.779L68.42 38.72A13.5 13.5 0 0 0 58.561 41.593L34.106 17.143A4.504 4.504 0 0 1 34.106 10.779M42.592 42.596C40.837 40.841 40.837 37.987 42.592 36.232S47.201 34.477 48.956 36.232L56.378 43.659 50.016 50.02zM38.353 55.322A4.503 4.503 0 0 1 38.351 48.957 4.506 4.506 0 0 1 44.715 48.957L47.895 52.141 41.534 58.502zM58.445 62.686L61.683 65.924A4.507 4.507 0 0 1 61.683 72.289 4.504 4.504 0 0 1 55.318 72.289L48.588 65.559A13.5 13.5 0 0 0 58.445 62.686M81.84 83.959C73.069 92.73 58.793 92.729 50.022 83.957L12.899 46.84A4.505 4.505 0 0 1 12.898 40.475 4.506 4.506 0 0 1 19.263 40.475L40.416 61.629 40.473 61.686 53.197 74.41C56.123 77.334 60.879 77.334 63.804 74.41A7.46 7.46 0 0 0 65.925 68.045 7.49 7.49 0 0 0 72.286 65.926C75.21 63.004 75.212 58.244 72.286 55.321 69.366 52.399 64.604 52.399 61.682 55.323L57.442 59.563C53.727 63.278 47.815 63.618 43.727 60.553L59.563 44.718C63.659 40.622 70.319 40.62 74.411 44.714L81.839 52.141C90.611 60.91 90.613 75.186 81.84 83.959M63.805 63.807L60.625 60.623 63.805 57.443A4.504 4.504 0 0 1 70.166 57.441 4.5 4.5 0 0 1 63.805 63.807" fill="#f98d67" data-fill-palette-color="accent"></path></g></svg></g></svg></g><g><rect width="69.09722299894631" height="6.189669333997635" y="87.66534429663739" x="251.86725700105364" fill="#0c0a0f" data-fill-palette-color="secondary"></rect><rect width="69.09722299894631" height="6.189669333997635" y="87.66534429663739" x="76.53311999999997" fill="#0c0a0f" data-fill-palette-color="secondary"></rect></g></svg></g><defs></defs></svg><rect width="395.52" height="201.0819634702673" fill="none" stroke="none" visibility="hidden"></rect></g></svg></g></svg>